<?xml version="1.0" encoding="utf-8"?>
<!DOCTYPE svg PUBLIC "-//W3C//DTD SVG 1.1//EN" "http://www.w3.org/Graphics/SVG/1.1/DTD/svg11.dtd">
<svg version="1.1" id="Layer_1" xmlns="http://www.w3.org/2000/svg" xmlns:xlink="http://www.w3.org/1999/xlink" x="0px" y="0px"
	 width="330.1px" height="54.8px" viewBox="0 0 330.1 54.8" style="enable-background:new 0 0 330.1 54.8;" xml:space="preserve">
<style type="text/css">
	.st0{fill:#3F69B2;}
	.st1{fill:#2BB6EA;}
</style>
<g>
	<path class="st0" d="M7.5,42.1C4.4,41.2,1.9,40,0,38.6l3.3-7.3c1.8,1.3,3.9,2.4,6.4,3.2c2.5,0.8,5,1.2,7.4,1.2
		c2.8,0,4.8-0.4,6.1-1.2c1.3-0.8,2-1.9,2-3.3c0-1-0.4-1.8-1.2-2.5c-0.8-0.7-1.8-1.2-3-1.6c-1.2-0.4-2.9-0.8-5-1.3
		c-3.2-0.8-5.8-1.5-7.9-2.3c-2-0.8-3.8-2-5.3-3.7c-1.5-1.7-2.2-3.9-2.2-6.7c0-2.4,0.7-4.6,2-6.6s3.3-3.5,6-4.7
		C11.4,0.6,14.7,0,18.5,0c2.7,0,5.3,0.3,7.9,1c2.6,0.6,4.8,1.6,6.7,2.8l-3,7.4c-3.9-2.2-7.8-3.3-11.6-3.3c-2.7,0-4.7,0.4-6,1.3
		c-1.3,0.9-1.9,2-1.9,3.5s0.8,2.5,2.3,3.2c1.5,0.7,3.8,1.4,6.9,2.1c3.2,0.8,5.8,1.5,7.9,2.3c2,0.8,3.8,2,5.3,3.6
		c1.5,1.6,2.2,3.9,2.2,6.7c0,2.4-0.7,4.6-2,6.6c-1.3,2-3.4,3.6-6,4.7c-2.7,1.2-5.9,1.7-9.8,1.7C13.8,43.4,10.6,43,7.5,42.1z"/>
	<path class="st0" d="M72.4,29.2H47.9c0.4,2,1.5,3.6,3.1,4.7c1.6,1.2,3.7,1.7,6.1,1.7c1.7,0,3.2-0.2,4.5-0.8
		c1.3-0.5,2.5-1.3,3.6-2.4l5,5.4c-3,3.5-7.5,5.2-13.3,5.2c-3.6,0-6.9-0.7-9.7-2.1c-2.8-1.4-5-3.4-6.5-5.9c-1.5-2.5-2.3-5.4-2.3-8.6
		c0-3.2,0.8-6,2.3-8.5c1.5-2.5,3.6-4.5,6.2-5.9c2.6-1.4,5.5-2.1,8.8-2.1c3.2,0,6,0.7,8.6,2c2.6,1.4,4.6,3.3,6,5.9
		c1.5,2.5,2.2,5.5,2.2,8.9C72.5,26.8,72.5,27.7,72.4,29.2z M50.5,18.8c-1.4,1.2-2.3,2.8-2.6,4.9h15.9c-0.3-2-1.2-3.7-2.6-4.9
		c-1.4-1.2-3.2-1.8-5.3-1.8C53.7,17,51.9,17.6,50.5,18.8z"/>
	<path class="st0" d="M85.1,41.1c-2.7-1.4-4.9-3.4-6.4-5.9c-1.5-2.5-2.3-5.4-2.3-8.6c0-3.2,0.8-6.1,2.3-8.6c1.5-2.5,3.7-4.5,6.4-5.9
		c2.7-1.4,5.8-2.1,9.3-2.1c3.4,0,6.4,0.7,8.9,2.1c2.5,1.4,4.4,3.4,5.5,6.1l-7.3,3.9c-1.7-3-4.1-4.4-7.3-4.4c-2.4,0-4.5,0.8-6.1,2.4
		c-1.6,1.6-2.4,3.8-2.4,6.5c0,2.8,0.8,4.9,2.4,6.5c1.6,1.6,3.6,2.4,6.1,2.4c3.2,0,5.6-1.5,7.3-4.4l7.3,4c-1.2,2.6-3,4.6-5.5,6
		c-2.5,1.4-5.5,2.2-8.9,2.2C90.9,43.2,87.8,42.5,85.1,41.1z"/>
	<path class="st0" d="M146.8,10.4v32.3h-8.9v-3.8c-1.2,1.4-2.7,2.5-4.4,3.2c-1.7,0.7-3.6,1.1-5.6,1.1c-4.2,0-7.6-1.2-10.1-3.7
		c-2.5-2.4-3.7-6.1-3.7-10.9V10.4h9.4v16.9c0,5.2,2.2,7.8,6.5,7.8c2.2,0,4-0.7,5.4-2.2c1.4-1.5,2-3.6,2-6.5v-16H146.8z"/>
	<path class="st0" d="M168.9,11.2c1.9-0.8,4.1-1.2,6.6-1.2v8.6c-1-0.1-1.7-0.1-2.1-0.1c-2.7,0-4.8,0.8-6.3,2.3
		c-1.5,1.5-2.3,3.8-2.3,6.8v15.2h-9.4V10.4h8.9v4.3C165.5,13.1,167,12,168.9,11.2z"/>
	<path class="st0" d="M212.2,29.2h-24.4c0.4,2,1.5,3.6,3.1,4.7c1.6,1.2,3.7,1.7,6.1,1.7c1.7,0,3.2-0.2,4.5-0.8
		c1.3-0.5,2.5-1.3,3.6-2.4l5,5.4c-3,3.5-7.5,5.2-13.3,5.2c-3.6,0-6.9-0.7-9.7-2.1c-2.8-1.4-5-3.4-6.5-5.9c-1.5-2.5-2.3-5.4-2.3-8.6
		c0-3.2,0.8-6,2.3-8.5c1.5-2.5,3.6-4.5,6.2-5.9c2.6-1.4,5.5-2.1,8.8-2.1c3.2,0,6,0.7,8.6,2c2.6,1.4,4.6,3.3,6,5.9
		c1.5,2.5,2.2,5.5,2.2,8.9C212.4,26.8,212.3,27.7,212.2,29.2z M190.3,18.8c-1.4,1.2-2.3,2.8-2.6,4.9h15.9c-0.3-2-1.2-3.7-2.6-4.9
		c-1.4-1.2-3.2-1.8-5.3-1.8C193.5,17,191.8,17.6,190.3,18.8z"/>
	<path class="st1" d="M247.2,2.6c2.7,1.2,4.8,3,6.3,5.3c1.5,2.3,2.2,5,2.2,8.1c0,3.1-0.7,5.8-2.2,8.1c-1.5,2.3-3.6,4.1-6.3,5.3
		c-2.7,1.2-6,1.8-9.7,1.8H229v11.6h-9.7v-42h18.2C241.2,0.7,244.4,1.3,247.2,2.6z M243.6,21.3c1.5-1.3,2.3-3,2.3-5.4
		c0-2.4-0.8-4.2-2.3-5.4c-1.5-1.3-3.7-1.9-6.7-1.9H229v14.6h7.9C239.9,23.2,242.1,22.6,243.6,21.3z"/>
	<path class="st1" d="M286.2,13.5c2.7,2.4,4,6,4,10.8v18.4h-8.8v-4c-1.8,3-5,4.5-9.8,4.5c-2.5,0-4.6-0.4-6.5-1.3
		c-1.8-0.8-3.2-2-4.2-3.5c-1-1.5-1.4-3.2-1.4-5c0-3,1.1-5.4,3.4-7.1c2.3-1.7,5.8-2.6,10.5-2.6h7.4c0-2-0.6-3.6-1.9-4.7
		c-1.2-1.1-3.1-1.6-5.6-1.6c-1.7,0-3.4,0.3-5.1,0.8c-1.7,0.5-3.1,1.3-4.2,2.2l-3.4-6.5c1.8-1.2,3.9-2.2,6.3-2.9c2.5-0.7,5-1,7.6-1
		C279.7,10,283.5,11.2,286.2,13.5z M278.2,35.8c1.2-0.7,2.1-1.8,2.6-3.3v-3.3h-6.4c-3.8,0-5.8,1.3-5.8,3.8c0,1.2,0.5,2.2,1.4,2.9
		c0.9,0.7,2.2,1.1,3.9,1.1C275.6,36.9,277,36.5,278.2,35.8z"/>
	<path class="st1" d="M330.1,10.4l-14.6,34.3c-1.5,3.7-3.3,6.3-5.5,7.9c-2.2,1.5-4.8,2.3-7.9,2.3c-1.7,0-3.3-0.3-5-0.8
		c-1.6-0.5-3-1.2-4-2.2l3.4-6.7c0.7,0.6,1.5,1.1,2.5,1.5c0.9,0.4,1.9,0.5,2.8,0.5c1.3,0,2.3-0.3,3.1-0.9c0.8-0.6,1.5-1.6,2.2-3.1
		l0.1-0.3l-14-32.5h9.7l9.1,21.9l9.1-21.9H330.1z"/>
</g>
</svg>
